#!OML:ASF F:\VICON\USERDATA\INSTALL\rory3\rory3.ASF
:FULLY-SPECIFIED
:DEGREES
777
root -2.50253 19.7001 7.82091 16.2874 -7.70361 -1.18593
lowerback -0.785589 0.816585 5.85251
upperback -5.30799 1.16686 -1.10052
thorax -4.94046 0.293625 -4.4679
lowerneck -14.5871 -5.4475 -7.85969
upperneck 24.9534 -6.65551 3.56331
head 10.8474 -3.37667 1.6812
rclavicle -1.3977e-015 1.56046e-014
rhumerus -42.3938 14.268 -88.2342
rradius 52.168
rwrist 14.1242
rhand -26.2138 -44.991
rfingers 7.12502
rthumb 0.339267 -74.9704
lclavicle -1.3977e-015 1.56046e-014
lhumerus -50.0024 -9.76759 80.1883
lradius 64.0164
lwrist 1.33912
lhand -33.3299 -39.4122
lfingers 7.12502
lthumb -6.5327 -9.533
rfemur -27.2999 8.40345 24.1056
rtibia 25.7248
rfoot 15.302 -6.9403
rtoes -11.7407
lfemur -79.6371 42.4505 -9.0293
ltibia 142.868
lfoot -18.716 -6.73034
ltoes -5.13518
778
root -2.54449 19.7013 7.79471 16.1499 -8.01424 -1.0253
lowerback -0.49243 0.825664 5.38585
upperback -5.36923 1.1882 -1.07822
thorax -5.17362 0.316766 -4.18866
lowerneck -13.8728 -5.34038 -8.52272
upperneck 24.8319 -6.62128 4.40537
head 10.7179 -3.33593 2.11576
rclavicle -7.67185e-015 -1.63997e-015
rhumerus -42.5605 13.4922 -88.1973
rradius 51.7562
rwrist 14.0633
rhand -26.4149 -46.0045
rfingers 7.12502
rthumb 0.145048 -75.9842
lclavicle -7.67185e-015 -1.63997e-015
lhumerus -50.0485 -10.4933 80.5267
lradius 63.8153
lwrist 1.5847
lhand -33.5426 -39.8621
lfingers 7.12502
lthumb -6.73805 -9.98927
rfemur -27.7942 9.15639 23.6776
rtibia 26.2543
rfoot 13.5544 -8.83408
rtoes -7.71112
lfemur -79.7811 42.1318 -9.44426
ltibia 142.706
lfoot -18.5329 -6.92326
ltoes -4.56538
779
root -2.57849 19.7089 7.81842 16.1584 -7.95076 -1.0486
lowerback -0.942413 0.74396 5.47291
upperback -4.98421 1.04864 -1.00069
thorax -4.52643 0.274164 -4.13873
lowerneck -14.7447 -5.30935 -8.62955
upperneck 25.0333 -6.50564 4.50908
head 10.9626 -3.26691 2.17012
rclavicle -4.32978e-015 1.61513e-014
rhumerus -41.8768 12.5099 -87.8185
rradius 51.3921
rwrist 14.1307
rhand -26.534 -46.359
rfingers 7.12502
rthumb 0.0299516 -76.3387
lclavicle -4.32978e-015 1.61513e-014
lhumerus -49.2918 -10.9377 80.7435
lradius 63.4738
lwrist 1.5727
lhand -33.9183 -40.2731
lfingers 7.12502
lthumb -7.10074 -10.4122
rfemur -27.9996 9.10133 23.6064
rtibia 26.6266
rfoot 11.6209 -9.57223
rtoes -5.53952
lfemur -79.1401 41.2777 -9.47189
ltibia 142.235
lfoot -18.8425 -6.83298
ltoes -4.58492
780
root -2.60653 19.7056 7.82748 15.95 -7.81563 -0.817125
lowerback -0.714077 0.573597 5.3403
upperback -4.99404 0.832497 -0.970901
thorax -4.69176 0.167058 -4.03056
lowerneck -14.8031 -5.10824 -8.5284
upperneck 25.2102 -6.1937 4.31102
head 11.0056 -3.13966 2.12715
rclavicle -3.3079e-015 -4.96962e-016
rhumerus -41.9888 11.7693 -87.6371
rradius 51.0644
rwrist 14.1116
rhand -26.5596 -46.6758
rfingers 7.12502
rthumb 0.00528212 -76.6555
lclavicle -3.3079e-015 -4.96962e-016
lhumerus -49.3229 -11.3861 81.0459
lradius 63.2609
lwrist 1.75413
lhand -34.105 -40.6403
lfingers 7.12502
lthumb -7.28091 -10.7855
rfemur -28.0984 8.95582 23.3009
rtibia 27.0129
rfoot 10.1877 -9.64062
rtoes -5.25546
lfemur -78.6602 39.109 -10.0736
ltibia 141.678
lfoot -18.3618 -6.26492
ltoes -4.6288
781
root -2.63996 19.673 7.79884 15.587 -7.924 -0.773031
lowerback 0.278303 0.476968 5.11868
upperback -5.18471 0.761087 -0.886284
thorax -5.46925 0.116178 -3.83045
lowerneck -14.4674 -4.9215 -8.55056
upperneck 25.3247 -5.94704 4.26984
head 10.9632 -3.04149 2.15932
rclavicle -1.40811e-014 2.23757e-014
rhumerus -42.3903 11.2702 -87.6031
rradius 50.7358
rwrist 13.8298
rhand -26.7158 -47.4417
rfingers 7.12502
rthumb -0.145585 -77.4214
lclavicle -1.40811e-014 2.23757e-014
lhumerus -49.5136 -11.8533 81.3043
lradius 63.1945
lwrist 1.92279
lhand -33.4913 -40.1248
lfingers 7.12502
lthumb -6.6885 -10.2505
rfemur -28.2467 9.48061 23.1316
rtibia 27.3664
rfoot 9.55546 -9.68102
rtoes -5.56375
lfemur -78.4933 37.9849 -10.2447
ltibia 141.289
lfoot -18.0408 -6.21669
ltoes -5.17998
782
root -2.67414 19.6492 7.81636 15.2573 -8.03468 -0.565797
lowerback 0.416289 0.430264 4.89215
upperback -5.14018 0.696596 -0.901371
thorax -5.50776 0.0939866 -3.71697
lowerneck -14.2395 -4.81141 -8.45318
upperneck 25.3114 -5.79022 4.10154
head 10.8929 -2.98455 2.10891
rclavicle 2.26552e-014 1.02498e-015
rhumerus -42.5436 10.7667 -87.5613
rradius 50.2607
rwrist 13.603
rhand -26.9265 -48.0448
rfingers 7.12502
rthumb -0.349111 -78.0242
lclavicle 2.26552e-014 1.02498e-015
lhumerus -49.5314 -12.2729 81.4909
lradius 63.1057
lwrist 1.77069
lhand -34.2456 -41.1431
lfingers 7.12502
lthumb -7.4166 -11.2931
rfemur -28.2029 9.43197 22.8924
rtibia 27.681
rfoot 8.93934 -9.07025
rtoes -6.09226
lfemur -77.4114 36.5542 -10.5124
ltibia 140.539
lfoot -18.2755 -5.75731
ltoes -5.30679
783
root -2.7131 19.6075 7.81467 15.005 -8.12719 -0.156943
lowerback 0.689684 0.310055 4.35113
upperback -5.11873 0.527349 -0.934039
thorax -5.65774 0.0305573 -3.44081
lowerneck -14.1498 -4.71179 -8.37068
upperneck 25.3042 -5.62985 3.9252
head 10.8527 -2.92616 2.05583
rclavicle 4.76244e-014 -2.01891e-017
rhumerus -42.3318 10.4659 -87.5661
rradius 49.417
rwrist 13.3574
rhand -27.3698 -47.8724
rfingers 7.12502
rthumb -0.777229 -77.8508
lclavicle 4.76244e-014 -2.01891e-017
lhumerus -49.3619 -12.5921 81.6469
lradius 62.8322
lwrist 1.83897
lhand -34.2821 -41.4621
lfingers 7.12502
lthumb -7.45189 -11.6134
rfemur -28.3234 9.39309 22.475
rtibia 27.9884
rfoot 8.66974 -8.516
rtoes -6.79808
lfemur -77.0308 34.5123 -11.3797
ltibia 139.807
lfoot -17.9142 -5.07927
ltoes -5.38368
784
root -2.7458 19.5656 7.83875 14.8269 -7.89233 0.0542381
lowerback 0.438715 0.125797 4.27302
upperback -4.96526 0.262688 -0.950031
thorax -5.37552 -0.0882586 -3.39647
lowerneck -14.1013 -4.5605 -8.35254
upperneck 25.2777 -5.41864 3.90862
head 10.8168 -2.83093 2.07784
rclavicle -2.31272e-014 -2.88471e-014
rhumerus -41.9777 10.1697 -87.5404
rradius 48.648
rwrist 12.9434
rhand -27.3962 -47.7679
rfingers 7.12502
rthumb -0.802761 -77.7461
lclavicle -2.31272e-014 -2.88471e-014
lhumerus -48.8867 -12.951 81.7857
lradius 62.3905
lwrist 2.22217
lhand -33.7901 -40.8576
lfingers 7.12502
lthumb -6.97699 -10.9926
rfemur -28.1895 8.84263 22.3982
rtibia 28.1854
rfoot 8.51272 -8.0618
rtoes -7.43525
lfemur -76.3068 32.0981 -11.935
ltibia 138.929
lfoot -17.9569 -4.02138
ltoes -7.28386
785
root -2.7764 19.4985 7.85655 14.6572 -7.5547 -0.0411348
lowerback 0.123351 -0.014752 4.49331
upperback -4.7194 0.0661011 -0.871889
thorax -4.95548 -0.178906 -3.42701
lowerneck -14.1406 -4.37852 -8.17144
upperneck 25.2444 -5.15398 3.73615
head 10.7822 -2.71236 2.02206
rclavicle -4.8213e-015 1.88224e-014
rhumerus -41.6756 9.72411 -87.3539
rradius 48.1728
rwrist 12.6498
rhand -26.8134 -48.2621
rfingers 7.12502
rthumb -0.239864 -78.2418
lclavicle -4.8213e-015 1.88224e-014
lhumerus -48.2293 -13.2643 81.9163
lradius 61.9684
lwrist 2.22038
lhand -32.6562 -39.6934
lfingers 7.12502
lthumb -5.88224 -9.79504
rfemur -28.0215 8.30524 22.6804
rtibia 28.3604
rfoot 8.38355 -8.21714
rtoes -6.87383
lfemur -75.8475 30.1576 -11.9563
ltibia 138.247
lfoot -17.9899 -3.65032
ltoes -8.71201
786
root -2.81332 19.4126 7.87475 14.5471 -7.3066 -0.253479
lowerback -0.336982 -0.128479 4.63284
upperback -4.47067 -0.103339 -0.710457
thorax -4.44818 -0.248024 -3.3293
lowerneck -14.1711 -4.26466 -8.04432
upperneck 25.2401 -4.96831 3.54039
head 10.7646 -2.63819 1.95577
rclavicle -8.05078e-015 3.1085e-014
rhumerus -41.2689 9.39715 -87.1417
rradius 47.4622
rwrist 12.4514
rhand -26.7106 -47.9049
rfingers 7.12502
rthumb -0.140586 -77.8846
lclavicle -8.05078e-015 3.1085e-014
lhumerus -47.6196 -13.4006 81.9916
lradius 61.6541
lwrist 1.92529
lhand -32.892 -39.7918
lfingers 7.12502
lthumb -6.10993 -9.89986
rfemur -27.8283 8.00398 23.07
rtibia 28.4373
rfoot 8.20268 -8.60664
rtoes -6.21663
lfemur -75.4183 28.7423 -11.7859
ltibia 137.599
lfoot -18.0079 -3.47235
ltoes -8.24985
787
root -2.85954 19.3116 7.89217 14.4326 -7.11002 -0.618958
lowerback 0.00715445 -0.2534 4.78389
upperback -4.87251 -0.234279 -0.527937
thorax -5.08019 -0.338885 -3.21852
lowerneck -13.7023 -4.12712 -7.86067
upperneck 25.712 -4.80347 3.26856
head 10.8245 -2.58994 1.85932
rclavicle 2.41492e-015 2.37796e-014
rhumerus -41.8129 9.19247 -87.25
rradius 46.629
rwrist 12.0067
rhand -27.0611 -47.0519
rfingers 7.12502
rthumb -0.479115 -77.0312
lclavicle 2.41492e-015 2.37796e-014
lhumerus -48.1896 -13.7051 82.2289
lradius 61.4787
lwrist 1.97659
lhand -33.0347 -39.7557
lfingers 7.12502
lthumb -6.24767 -9.86785
rfemur -27.567 8.01437 23.619
rtibia 28.438
rfoot 8.28793 -9.0854
rtoes -6.83515
lfemur -74.9294 28.0516 -11.2877
ltibia 136.983
lfoot -18.4866 -3.25939
ltoes -7.80244
